solid
 facet normal -1.000000e+00 -0.000000e+00 -0.000000e+00
   outer loop
     vertex -8.000000e-01  4.000000e-01  7.500000e-01
     vertex -8.000000e-01  4.000000e-01  0.000000e+00
     vertex -8.000000e-01 -4.000000e-01  7.500000e-01
   endloop
 endfacet
 facet normal -1.000000e+00  0.000000e+00  0.000000e+00
   outer loop
     vertex -8.000000e-01  4.000000e-01  0.000000e+00
     vertex -8.000000e-01 -4.000000e-01  0.000000e+00
     vertex -8.000000e-01 -4.000000e-01  7.500000e-01
   endloop
 endfacet
 facet normal  1.000000e+00 -0.000000e+00  0.000000e+00
   outer loop
     vertex -5.000000e-01 -4.000000e-01  7.500000e-01
     vertex -5.000000e-01  4.000000e-01  0.000000e+00
     vertex -5.000000e-01  4.000000e-01  7.500000e-01
   endloop
 endfacet
 facet normal  1.000000e+00 -0.000000e+00  0.000000e+00
   outer loop
     vertex -5.000000e-01 -4.000000e-01  7.500000e-01
     vertex -5.000000e-01 -4.000000e-01  0.000000e+00
     vertex -5.000000e-01  4.000000e-01  0.000000e+00
   endloop
 endfacet
 facet normal  0.000000e+00 -1.000000e+00  0.000000e+00
   outer loop
     vertex -8.000000e-01 -4.000000e-01  0.000000e+00
     vertex -5.000000e-01 -4.000000e-01  0.000000e+00
     vertex -5.000000e-01 -4.000000e-01  7.500000e-01
   endloop
 endfacet
 facet normal  0.000000e+00 -1.000000e+00  0.000000e+00
   outer loop
     vertex -8.000000e-01 -4.000000e-01  7.500000e-01
     vertex -8.000000e-01 -4.000000e-01  0.000000e+00
     vertex -5.000000e-01 -4.000000e-01  7.500000e-01
   endloop
 endfacet
 facet normal  0.000000e+00  1.000000e+00  0.000000e+00
   outer loop
     vertex -5.000000e-01  4.000000e-01  7.500000e-01
     vertex -5.000000e-01  4.000000e-01  0.000000e+00
     vertex -8.000000e-01  4.000000e-01  0.000000e+00
   endloop
 endfacet
 facet normal  0.000000e+00  1.000000e+00 -0.000000e+00
   outer loop
     vertex -5.000000e-01  4.000000e-01  7.500000e-01
     vertex -8.000000e-01  4.000000e-01  0.000000e+00
     vertex -8.000000e-01  4.000000e-01  7.500000e-01
   endloop
 endfacet
 facet normal  0.000000e+00  0.000000e+00 -1.000000e+00
   outer loop
     vertex -8.000000e-01 -4.000000e-01  0.000000e+00
     vertex -8.000000e-01  4.000000e-01  0.000000e+00
     vertex -5.000000e-01  4.000000e-01  0.000000e+00
   endloop
 endfacet
 facet normal  0.000000e+00  0.000000e+00 -1.000000e+00
   outer loop
     vertex -5.000000e-01 -4.000000e-01  0.000000e+00
     vertex -8.000000e-01 -4.000000e-01  0.000000e+00
     vertex -5.000000e-01  4.000000e-01  0.000000e+00
   endloop
 endfacet
 facet normal  0.000000e+00  0.000000e+00  1.000000e+00
   outer loop
     vertex -5.000000e-01  4.000000e-01  7.500000e-01
     vertex -8.000000e-01  4.000000e-01  7.500000e-01
     vertex -8.000000e-01 -4.000000e-01  7.500000e-01
   endloop
 endfacet
 facet normal -0.000000e+00  0.000000e+00  1.000000e+00
   outer loop
     vertex -5.000000e-01  4.000000e-01  7.500000e-01
     vertex -8.000000e-01 -4.000000e-01  7.500000e-01
     vertex -5.000000e-01 -4.000000e-01  7.500000e-01
   endloop
 endfacet
 facet normal -1.000000e+00 -0.000000e+00 -0.000000e+00
   outer loop
     vertex  5.000000e-01  4.000000e-01  7.500000e-01
     vertex  5.000000e-01  4.000000e-01  0.000000e+00
     vertex  5.000000e-01 -4.000000e-01  7.500000e-01
   endloop
 endfacet
 facet normal -1.000000e+00  0.000000e+00  0.000000e+00
   outer loop
     vertex  5.000000e-01  4.000000e-01  0.000000e+00
     vertex  5.000000e-01 -4.000000e-01  0.000000e+00
     vertex  5.000000e-01 -4.000000e-01  7.500000e-01
   endloop
 endfacet
 facet normal  1.000000e+00 -0.000000e+00  0.000000e+00
   outer loop
     vertex  8.000000e-01 -4.000000e-01  7.500000e-01
     vertex  8.000000e-01  4.000000e-01  0.000000e+00
     vertex  8.000000e-01  4.000000e-01  7.500000e-01
   endloop
 endfacet
 facet normal  1.000000e+00 -0.000000e+00  0.000000e+00
   outer loop
     vertex  8.000000e-01 -4.000000e-01  7.500000e-01
     vertex  8.000000e-01 -4.000000e-01  0.000000e+00
     vertex  8.000000e-01  4.000000e-01  0.000000e+00
   endloop
 endfacet
 facet normal  0.000000e+00 -1.000000e+00  0.000000e+00
   outer loop
     vertex  5.000000e-01 -4.000000e-01  0.000000e+00
     vertex  8.000000e-01 -4.000000e-01  0.000000e+00
     vertex  8.000000e-01 -4.000000e-01  7.500000e-01
   endloop
 endfacet
 facet normal  0.000000e+00 -1.000000e+00  0.000000e+00
   outer loop
     vertex  5.000000e-01 -4.000000e-01  7.500000e-01
     vertex  5.000000e-01 -4.000000e-01  0.000000e+00
     vertex  8.000000e-01 -4.000000e-01  7.500000e-01
   endloop
 endfacet
 facet normal  0.000000e+00  1.000000e+00  0.000000e+00
   outer loop
     vertex  8.000000e-01  4.000000e-01  7.500000e-01
     vertex  8.000000e-01  4.000000e-01  0.000000e+00
     vertex  5.000000e-01  4.000000e-01  0.000000e+00
   endloop
 endfacet
 facet normal  0.000000e+00  1.000000e+00 -0.000000e+00
   outer loop
     vertex  8.000000e-01  4.000000e-01  7.500000e-01
     vertex  5.000000e-01  4.000000e-01  0.000000e+00
     vertex  5.000000e-01  4.000000e-01  7.500000e-01
   endloop
 endfacet
 facet normal  0.000000e+00  0.000000e+00 -1.000000e+00
   outer loop
     vertex  5.000000e-01 -4.000000e-01  0.000000e+00
     vertex  5.000000e-01  4.000000e-01  0.000000e+00
     vertex  8.000000e-01  4.000000e-01  0.000000e+00
   endloop
 endfacet
 facet normal  0.000000e+00  0.000000e+00 -1.000000e+00
   outer loop
     vertex  8.000000e-01 -4.000000e-01  0.000000e+00
     vertex  5.000000e-01 -4.000000e-01  0.000000e+00
     vertex  8.000000e-01  4.000000e-01  0.000000e+00
   endloop
 endfacet
 facet normal  0.000000e+00  0.000000e+00  1.000000e+00
   outer loop
     vertex  8.000000e-01  4.000000e-01  7.500000e-01
     vertex  5.000000e-01  4.000000e-01  7.500000e-01
     vertex  5.000000e-01 -4.000000e-01  7.500000e-01
   endloop
 endfacet
 facet normal -0.000000e+00  0.000000e+00  1.000000e+00
   outer loop
     vertex  8.000000e-01  4.000000e-01  7.500000e-01
     vertex  5.000000e-01 -4.000000e-01  7.500000e-01
     vertex  8.000000e-01 -4.000000e-01  7.500000e-01
   endloop
 endfacet
 facet normal -1.000000e+00 -0.000000e+00 -0.000000e+00
   outer loop
     vertex -5.000000e-01  3.920000e-01  7.425000e-01
     vertex -5.000000e-01  3.920000e-01  7.500000e-03
     vertex -5.000000e-01 -3.920000e-01  7.425000e-01
   endloop
 endfacet
 facet normal -1.000000e+00  0.000000e+00  0.000000e+00
   outer loop
     vertex -5.000000e-01  3.920000e-01  7.500000e-03
     vertex -5.000000e-01 -3.920000e-01  7.500000e-03
     vertex -5.000000e-01 -3.920000e-01  7.425000e-01
   endloop
 endfacet
 facet normal  1.000000e+00 -0.000000e+00  0.000000e+00
   outer loop
     vertex  5.000000e-01 -3.920000e-01  7.425000e-01
     vertex  5.000000e-01  3.920000e-01  7.500000e-03
     vertex  5.000000e-01  3.920000e-01  7.425000e-01
   endloop
 endfacet
 facet normal  1.000000e+00 -0.000000e+00  0.000000e+00
   outer loop
     vertex  5.000000e-01 -3.920000e-01  7.425000e-01
     vertex  5.000000e-01 -3.920000e-01  7.500000e-03
     vertex  5.000000e-01  3.920000e-01  7.500000e-03
   endloop
 endfacet
 facet normal  0.000000e+00 -1.000000e+00  0.000000e+00
   outer loop
     vertex -5.000000e-01 -3.920000e-01  7.425000e-01
     vertex -5.000000e-01 -3.920000e-01  7.500000e-03
     vertex  5.000000e-01 -3.920000e-01  7.500000e-03
   endloop
 endfacet
 facet normal  0.000000e+00 -1.000000e+00  0.000000e+00
   outer loop
     vertex -5.000000e-01 -3.920000e-01  7.425000e-01
     vertex  5.000000e-01 -3.920000e-01  7.500000e-03
     vertex  5.000000e-01 -3.920000e-01  7.425000e-01
   endloop
 endfacet
 facet normal  0.000000e+00  1.000000e+00 -0.000000e+00
   outer loop
     vertex  5.000000e-01  3.920000e-01  7.500000e-03
     vertex -5.000000e-01  3.920000e-01  7.500000e-03
     vertex -5.000000e-01  3.920000e-01  7.425000e-01
   endloop
 endfacet
 facet normal  0.000000e+00  1.000000e+00  0.000000e+00
   outer loop
     vertex  5.000000e-01  3.920000e-01  7.425000e-01
     vertex  5.000000e-01  3.920000e-01  7.500000e-03
     vertex -5.000000e-01  3.920000e-01  7.425000e-01
   endloop
 endfacet
 facet normal  0.000000e+00  0.000000e+00 -1.000000e+00
   outer loop
     vertex -5.000000e-01 -3.920000e-01  7.500000e-03
     vertex -5.000000e-01  3.920000e-01  7.500000e-03
     vertex  5.000000e-01  3.920000e-01  7.500000e-03
   endloop
 endfacet
 facet normal  0.000000e+00  0.000000e+00 -1.000000e+00
   outer loop
     vertex  5.000000e-01 -3.920000e-01  7.500000e-03
     vertex -5.000000e-01 -3.920000e-01  7.500000e-03
     vertex  5.000000e-01  3.920000e-01  7.500000e-03
   endloop
 endfacet
 facet normal  0.000000e+00  0.000000e+00  1.000000e+00
   outer loop
     vertex  5.000000e-01  3.920000e-01  7.425000e-01
     vertex -5.000000e-01  3.920000e-01  7.425000e-01
     vertex -5.000000e-01 -3.920000e-01  7.425000e-01
   endloop
 endfacet
 facet normal -0.000000e+00  0.000000e+00  1.000000e+00
   outer loop
     vertex  5.000000e-01  3.920000e-01  7.425000e-01
     vertex -5.000000e-01 -3.920000e-01  7.425000e-01
     vertex  5.000000e-01 -3.920000e-01  7.425000e-01
   endloop
 endfacet
endsolid
