%
T1C.00984F0S0
X19818Y15767
X19761Y15768
X19891Y15768
X19735Y15785
X19769Y15796
X19916Y15813
X19796Y158151
X19734Y15845
X19811Y159211
X19732Y1596
X19921Y15964
X19902Y15978
X19882Y15998
X1978Y16011
X19732Y16023
X19825Y160531
X19803Y160731
X19825Y160921
X19802Y16112
X1978Y16151
X1983Y161711
X19734Y1621
X19858Y162311
X19902Y162471
X19803Y16249
X1993Y162491
X19763Y16276
X19734Y16338
X1976Y16355
X19906Y16381
X19802Y16382
X19855Y16382
X19754Y16382
X19712Y16401
X19851Y16403
X19924Y16403
X19776Y16403
X19993Y16403
X20055Y16398
X20139Y16382
X20181Y16382
X19971Y16381
X20015Y16381
X20054Y16365
X19937Y16356
X20109Y16356
X19999Y16352
X20131Y1635
X20034Y16349
X19968Y16339
X19942Y16317
X20078Y16312
X20001Y16312
X20136Y16312
X2004Y16275
X2007Y16275
X20103Y16229
X20076Y161511
X20079Y160731
X20072Y16016
X20121Y160121
X20042Y160101
X20121Y15991
X20026Y15981
X19961Y15978
X2Y15978
X19941Y15954
X19981Y15954
X19952Y15863
X19981Y15862
X20154Y15851
X19947Y15814
X19981Y15813
X20015Y15813
X20136Y15809
X20169Y15798
X19946Y15769
X19985Y15769
X20155Y15768
X2004Y15768
X20103Y15768
X20213Y15768
X20267Y1577
X20266Y15802
X20233Y15804
X20188Y15827
X20265Y15835
X2022Y15848
X20265Y16074
X20265Y16141
X20215Y1615
X20203Y1617
X20267Y16205
X20214Y162111
X20266Y16258
X20239Y162681
X20267Y16317
X20239Y16349
X20186Y16351
X20267Y16374
X20233Y16382
X20209Y16402
T2C.01F0S0
X19887Y16058
X19919Y16058
X19919Y1609
X19887Y1609
X19887Y16122
X19919Y16122
X19887Y16154
X19919Y16154
X19887Y16186
X19919Y16186
X19869Y16276
X19901Y16276
X1997Y16251
X20033Y16251
X19951Y16186
X19983Y16186
X20015Y16186
X19951Y16154
X19983Y16154
X20015Y16154
X19983Y16122
X19951Y16122
X20015Y16122
X19983Y1609
X19951Y1609
X20015Y1609
X19983Y16058
X20015Y16058
X19951Y16058
X2026Y16402
T3C.02165F0S0
X19685Y158169
X19685Y15876
X19685Y15935
X19685Y159941
X19685Y160531
X19685Y161122
X19685Y161713
X19685Y162303
X19685Y162894
X19685Y163484
X20315Y163484
X20315Y162894
X20315Y162303
X20315Y161713
X20315Y161122
X20315Y160531
X20315Y159941
X20315Y15935
X20315Y15876
X20315Y158169
M30
